# xmcd
#
# Track frame offsets: 
#        150
#        18938
#        33018
#        47840
#        61365
#        75005
#        90457
#        104434
#        114307
#        130602
#        141249
#        150422
#        159797
#        176177
#        192266
#        206025
#
# Disc length: 2924 seconds
#
# Revision: 0
# Processed by: cddbd v1.5.2PL0 Copyright (c) Steve Scherf et al.
# Submitted via: ExactAudioCopy v0.99pb5
#
DISCID=bd0b6a10
DTITLE=Edith Piaf - La Vie En Rose
DYEAR=1900
DGENRE=Chanson
TTITLE0=Les trois cloches
TTITLE1=La vie en Rose
TTITLE2=Padam...Padam
TTITLE3=Une enfant
TTITLE4=Monsier et Madame
TTITLE5=Hymne a lÁmour
TTITLE6=Bravo pour le clown!
TTITLE7=Johnny, tu nést pas un ange
TTITLE8=LÁccordeoniste
TTITLE9=Enfin le primntemps
TTITLE10=La goualante du pauvre Jean
TTITLE11=L`homme au piano
TTITLE12=Sérénade du pavé
TTITLE13=Sous le ciel de Paris
TTITLE14=Cést á Hambourg
TTITLE15=La Foule
EXTD=
EXTT0=
EXTT1=
EXTT2=
EXTT3=
EXTT4=
EXTT5=
EXTT6=
EXTT7=
EXTT8=
EXTT9=
EXTT10=
EXTT11=
EXTT12=
EXTT13=
EXTT14=
EXTT15=
PLAYORDER=
